<?xml version="1.0" encoding="UTF-8" standalone="no"?>
<!DOCTYPE svg PUBLIC "-//W3C//DTD SVG 1.1//EN" "http://www.w3.org/Graphics/SVG/1.1/DTD/svg11.dtd">
<svg width="100%" height="100%" viewBox="0 0 300 300" version="1.1" xmlns="http://www.w3.org/2000/svg" xmlns:xlink="http://www.w3.org/1999/xlink" xml:space="preserve" xmlns:serif="http://www.serif.com/" style="fill-rule:evenodd;clip-rule:evenodd;stroke-linecap:round;stroke-linejoin:round;stroke-miterlimit:1.5;">
    <g transform="matrix(1,0,0,1,-335,-1.76699)">
        <g id="cat_one_right" transform="matrix(0.840489,0,0,0.674603,-91.2378,-166.711)">
            <rect x="507.131" y="249.744" width="356.935" height="444.706" style="fill:none;"/>
            <g transform="matrix(1,0,0,1,-33.104,-56.2119)">
                <g transform="matrix(1.18978,0,0,1.48235,109.743,247.124)">
                    <path d="M407.784,233.296L441.799,236.615L443.873,255.282C443.873,255.282 444.39,258.011 447.661,258.22C450.932,258.429 488.165,260.864 488.165,260.864C488.165,260.864 490.74,261.491 492.132,259.96C493.524,258.429 495.681,241.169 495.681,241.169L528.808,241.169L530.995,257.037C530.995,257.037 532.804,260.586 537.676,260.516C542.548,260.447 576.788,258.011 576.788,258.011C576.788,258.011 580.685,258.15 581.103,251.121C581.52,244.092 582.147,236.924 582.147,236.924L616.555,233.514C616.555,233.514 616.207,247.746 615.929,249.973C615.651,252.2 613.354,264.518 595.607,277.811C577.861,291.103 541.018,295.314 534.407,295.592C527.795,295.87 496.214,295.731 490.02,295.801C483.826,295.87 461.904,292.599 445.062,285.779C428.22,278.959 414.833,269.221 410.073,255.819C407.428,248.372 407.784,233.296 407.784,233.296Z" style="fill:rgb(69,141,192);stroke:rgb(69,141,192);stroke-width:1.67px;"/>
                </g>
                <g transform="matrix(1.18978,0,0,1.48235,108.222,245.597)">
                    <path d="M485.153,251.883L451.678,249.308L450.843,233.649C450.843,233.649 450.889,231.839 449.729,230.309C447.989,228.012 408.898,224.618 408.898,224.618L409.546,162.021C409.546,162.021 399.9,148.909 398.71,130.025C396.348,92.544 402.605,89.075 402.605,89.075C402.605,89.075 408.682,81.668 432.891,89.539C447.963,94.44 452.508,98.925 452.508,98.925C452.508,98.925 459.776,103.919 459.98,103.867C470.047,101.318 493.518,96.654 506.951,96.394C517.523,96.189 533.757,97.723 554.03,105.093C554.121,105.126 590.795,75.155 620.11,87.651C629.866,91.81 628.721,120.363 626.504,131.826C623.843,145.587 615.673,163.595 615.673,163.595L616.506,225.15L580.118,228.208C580.118,228.208 576.708,228.034 575.664,229.147C574.62,230.261 573.158,249.608 573.158,249.608L539.278,251.904L537.19,237.498C537.19,237.498 537.12,235.689 536.215,234.367C535.311,233.044 530.787,232.557 530.787,232.557L491.322,232.627C491.322,232.627 489.304,232.557 488.329,234.297C487.355,236.037 486.868,239.795 486.868,239.795L485.153,251.883Z" style="fill:rgb(69,141,192);stroke:rgb(69,141,192);stroke-width:1.67px;"/>
                </g>
                <g transform="matrix(1.18978,0,0,1.48235,108.553,247.124)">
                    <path d="M615.394,162.566C615.394,162.566 621.793,185.467 621.96,193.213C622.232,205.854 616.659,224.612 616.659,224.612L600.755,210.204L601.571,160.727L615.394,162.566Z" style="fill:rgb(69,141,192);"/>
                </g>
                <g transform="matrix(1.28185,0,0,1.63601,100.246,255.076)">
                    <ellipse cx="431.596" cy="164.664" rx="22.3" ry="21.769"/>
                </g>
                <g transform="matrix(1.28185,0,0,1.63601,230.067,255.863)">
                    <ellipse cx="431.596" cy="164.664" rx="22.3" ry="21.769"/>
                </g>
                <g transform="matrix(1.28601,0,0,1.48235,58.4859,247.124)">
                    <path d="M512.468,213.205C518.202,212.992 520.326,208.32 520.326,206.621C520.326,204.922 517.352,203.452 512.256,203.222C507.319,203 504.526,204.769 504.61,206.505C504.705,208.47 506.734,213.417 512.468,213.205Z" style="fill:white;"/>
                </g>
                <g transform="matrix(1.18978,0,0,1.48235,101.92,247.518)">
                    <ellipse cx="453.631" cy="188.822" rx="9.557" ry="9.823" style="fill:white;"/>
                </g>
                <g transform="matrix(1.18978,0,0,1.48235,231.109,246.731)">
                    <ellipse cx="453.631" cy="188.822" rx="9.557" ry="9.823" style="fill:white;"/>
                </g>
                <g transform="matrix(0.519665,0,0,0.647452,544.801,381.884)">
                    <ellipse cx="453.631" cy="188.822" rx="9.557" ry="9.823" style="fill:white;"/>
                </g>
                <g transform="matrix(0.519665,0,0,0.647452,414.348,379.916)">
                    <ellipse cx="453.631" cy="188.822" rx="9.557" ry="9.823" style="fill:white;"/>
                </g>
                <g transform="matrix(0.519665,0,0,0.647452,544.801,381.884)">
                    <ellipse cx="453.631" cy="188.822" rx="9.557" ry="9.823" style="fill:white;"/>
                </g>
                <g transform="matrix(1.18978,0,0,1.48235,108.553,247.124)">
                    <path d="M408.376,156.158C408.376,156.158 403.361,180.959 402.971,187.494C402.581,194.029 402.31,205.854 404.892,213.602C407.475,221.35 408.426,223.797 408.426,223.797C408.426,223.797 415.494,221.486 418.893,219.583C422.291,217.68 423.922,155.154 423.922,155.154L408.376,156.158Z" style="fill:rgb(69,141,192);"/>
                </g>
            </g>
        </g>
    </g>
</svg>
